HIERARCHY
ROOT Hips
{
	OFFSET -0.000008 104.274872 1.554316
	CHANNELS 6 Xposition Yposition Zposition Xrotation Yrotation Zrotation
	JOINT Spine
	{
		OFFSET -0.000005 10.181595 0.131521
		CHANNELS 6 Xposition Yposition Zposition Xrotation Yrotation Zrotation
		JOINT Spine1
		{
			OFFSET -0.000000 9.893959 -1.470711
			CHANNELS 6 Xposition Yposition Zposition Xrotation Yrotation Zrotation
			JOINT Spine2
			{
				OFFSET -0.000000 9.220757 -1.370642
				CHANNELS 3 Xrotation Yrotation Zrotation
				JOINT Neck
				{
					OFFSET 0.000001 16.740417 -2.049038
					CHANNELS 6 Xposition Yposition Zposition Xrotation Yrotation Zrotation
					JOINT Head
					{
						OFFSET 0.000000 9.617874 1.685009
						CHANNELS 6 Xposition Yposition Zposition Xrotation Yrotation Zrotation
						JOINT HeadTop_End
						{
							OFFSET 0.000002 22.037384 7.501098
							CHANNELS 6 Xposition Yposition Zposition Xrotation Yrotation Zrotation
							End Site
							{
								OFFSET 0.000002 23.106583 -2.828261
							}
						}
					}
				}
				JOINT RightShoulder
				{
					OFFSET -4.569969 11.014923 -2.160886
					CHANNELS 6 Xposition Yposition Zposition Xrotation Yrotation Zrotation
					JOINT RightArm
					{
						OFFSET -10.592850 -0.524811 -2.232100
						CHANNELS 3 Xrotation Yrotation Zrotation
						JOINT RightForeArm
						{
							OFFSET -27.841520 0.000015 -0.000005
							CHANNELS 6 Xposition Yposition Zposition Xrotation Yrotation Zrotation
							JOINT RightHand
							{
								OFFSET -28.328838 -0.000015 0.000018
								CHANNELS 6 Xposition Yposition Zposition Xrotation Yrotation Zrotation
								JOINT RightHandThumb1
								{
									OFFSET -2.464806 -1.573990 2.681853
									CHANNELS 6 Xposition Yposition Zposition Xrotation Yrotation Zrotation
									JOINT RightHandThumb2
									{
										OFFSET -3.215195 -1.872772 1.924282
										CHANNELS 6 Xposition Yposition Zposition Xrotation Yrotation Zrotation
										JOINT RightHandThumb3
										{
											OFFSET -2.654823 -1.527985 1.512609
											CHANNELS 6 Xposition Yposition Zposition Xrotation Yrotation Zrotation
											JOINT RightHandThumb4
											{
												OFFSET -2.018822 -1.152008 1.108055
												CHANNELS 3 Xrotation Yrotation Zrotation
												End Site
												{
													OFFSET -1.888100 -1.145340 1.324313
												}
											}
										}
									}
								}
								JOINT RightHandIndex1
								{
									OFFSET -9.108284 -0.517868 2.259835
									CHANNELS 6 Xposition Yposition Zposition Xrotation Yrotation Zrotation
									JOINT RightHandIndex2
									{
										OFFSET -3.699997 0.000000 0.001215
										CHANNELS 3 Xrotation Yrotation Zrotation
										JOINT RightHandIndex3
										{
											OFFSET -2.850014 0.000031 -0.000522
											CHANNELS 3 Xrotation Yrotation Zrotation
											JOINT RightHandIndex4
											{
												OFFSET -2.772179 -0.000015 -0.000019
												CHANNELS 3 Xrotation Yrotation Zrotation
												End Site
												{
													OFFSET -2.772186 0.000000 -0.000502
												}
											}
										}
									}
								}
								JOINT RightHandMiddle1
								{
									OFFSET -9.532509 -0.000046 -0.000025
									CHANNELS 6 Xposition Yposition Zposition Xrotation Yrotation Zrotation
									JOINT RightHandMiddle2
									{
										OFFSET -3.700012 0.000000 0.003713
										CHANNELS 3 Xrotation Yrotation Zrotation
										JOINT RightHandMiddle3
										{
											OFFSET -2.949989 0.000015 -0.002054
											CHANNELS 3 Xrotation Yrotation Zrotation
											JOINT RightHandMiddle4
											{
												OFFSET -2.946625 0.000000 -0.000154
												CHANNELS 3 Xrotation Yrotation Zrotation
												End Site
												{
													OFFSET -2.946632 0.000015 -0.001136
												}
											}
										}
									}
								}
								JOINT RightHandRing1
								{
									OFFSET -9.103600 -0.043076 -1.865135
									CHANNELS 6 Xposition Yposition Zposition Xrotation Yrotation Zrotation
									JOINT RightHandRing2
									{
										OFFSET -3.379272 0.000000 -0.001054
										CHANNELS 3 Xrotation Yrotation Zrotation
										JOINT RightHandRing3
										{
											OFFSET -2.889694 0.000015 0.000379
											CHANNELS 3 Xrotation Yrotation Zrotation
											JOINT RightHandRing4
											{
												OFFSET -2.638809 0.000000 0.000941
												CHANNELS 3 Xrotation Yrotation Zrotation
												End Site
												{
													OFFSET -2.638802 0.000000 0.005160
												}
											}
										}
									}
								}
								JOINT RightHandPinky1
								{
									OFFSET -8.076675 -0.486710 -3.806280
									CHANNELS 6 Xposition Yposition Zposition Xrotation Yrotation Zrotation
									JOINT RightHandPinky2
									{
										OFFSET -3.600006 -0.000031 -0.003747
										CHANNELS 3 Xrotation Yrotation Zrotation
										JOINT RightHandPinky3
										{
											OFFSET -2.099976 -0.000015 -0.005740
											CHANNELS 3 Xrotation Yrotation Zrotation
											JOINT RightHandPinky4
											{
												OFFSET -2.115776 -0.000031 -0.003680
												CHANNELS 3 Xrotation Yrotation Zrotation
												End Site
												{
													OFFSET -2.115776 -0.000015 -0.003507
												}
											}
										}
									}
								}
							}
						}
					}
				}
				JOINT LeftShoulder
				{
					OFFSET 4.570447 11.014725 -2.160858
					CHANNELS 6 Xposition Yposition Zposition Xrotation Yrotation Zrotation
					JOINT LeftArm
					{
						OFFSET 10.592371 -0.524597 -2.232121
						CHANNELS 3 Xrotation Yrotation Zrotation
						JOINT LeftForeArm
						{
							OFFSET 27.841520 -0.000015 0.000023
							CHANNELS 3 Xrotation Yrotation Zrotation
							JOINT LeftHand
							{
								OFFSET 28.328835 -0.000046 0.000017
								CHANNELS 6 Xposition Yposition Zposition Xrotation Yrotation Zrotation
								JOINT LeftHandThumb1
								{
									OFFSET 2.466141 -1.576187 2.681734
									CHANNELS 6 Xposition Yposition Zposition Xrotation Yrotation Zrotation
									JOINT LeftHandThumb2
									{
										OFFSET 3.217804 -1.872055 1.916487
										CHANNELS 6 Xposition Yposition Zposition Xrotation Yrotation Zrotation
										JOINT LeftHandThumb3
										{
											OFFSET 2.656021 -1.528809 1.514508
											CHANNELS 6 Xposition Yposition Zposition Xrotation Yrotation Zrotation
											JOINT LeftHandThumb4
											{
												OFFSET 2.020889 -1.154068 1.115132
												CHANNELS 6 Xposition Yposition Zposition Xrotation Yrotation Zrotation
												End Site
												{
													OFFSET 1.908852 -1.150833 1.300490
												}
											}
										}
									}
								}
								JOINT LeftHandIndex1
								{
									OFFSET 9.109306 -0.518036 2.259871
									CHANNELS 6 Xposition Yposition Zposition Xrotation Yrotation Zrotation
									JOINT LeftHandIndex2
									{
										OFFSET 3.699997 -0.000015 -0.000323
										CHANNELS 3 Xrotation Yrotation Zrotation
										JOINT LeftHandIndex3
										{
											OFFSET 2.850006 -0.000015 0.000350
											CHANNELS 3 Xrotation Yrotation Zrotation
											JOINT LeftHandIndex4
											{
												OFFSET 2.774857 -0.000015 -0.000027
												CHANNELS 3 Xrotation Yrotation Zrotation
												End Site
												{
													OFFSET 2.774864 0.000000 -0.000099
												}
											}
										}
									}
								}
								JOINT LeftHandMiddle1
								{
									OFFSET 9.533401 0.000031 0.000044
									CHANNELS 6 Xposition Yposition Zposition Xrotation Yrotation Zrotation
									JOINT LeftHandMiddle2
									{
										OFFSET 3.699997 0.000000 -0.000231
										CHANNELS 3 Xrotation Yrotation Zrotation
										JOINT LeftHandMiddle3
										{
											OFFSET 2.949997 -0.000015 -0.000059
											CHANNELS 3 Xrotation Yrotation Zrotation
											JOINT LeftHandMiddle4
											{
												OFFSET 2.952866 0.000000 0.000062
												CHANNELS 3 Xrotation Yrotation Zrotation
												End Site
												{
													OFFSET 2.952858 0.000000 0.000228
												}
											}
										}
									}
								}
								JOINT LeftHandRing1
								{
									OFFSET 9.104530 -0.043030 -1.865075
									CHANNELS 6 Xposition Yposition Zposition Xrotation Yrotation Zrotation
									JOINT LeftHandRing2
									{
										OFFSET 3.150009 0.000000 0.000042
										CHANNELS 3 Xrotation Yrotation Zrotation
										JOINT LeftHandRing3
										{
											OFFSET 2.949989 -0.000015 0.000040
											CHANNELS 3 Xrotation Yrotation Zrotation
											JOINT LeftHandRing4
											{
												OFFSET 2.644318 -0.000015 0.000056
												CHANNELS 6 Xposition Yposition Zposition Xrotation Yrotation Zrotation
												End Site
												{
													OFFSET 2.644318 0.000000 0.000120
												}
											}
										}
									}
								}
								JOINT LeftHandPinky1
								{
									OFFSET 8.077782 -0.486877 -3.806258
									CHANNELS 6 Xposition Yposition Zposition Xrotation Yrotation Zrotation
									JOINT LeftHandPinky2
									{
										OFFSET 3.599960 0.000031 0.014726
										CHANNELS 3 Xrotation Yrotation Zrotation
										JOINT LeftHandPinky3
										{
											OFFSET 2.099998 0.000031 0.007705
											CHANNELS 3 Xrotation Yrotation Zrotation
											JOINT LeftHandPinky4
											{
												OFFSET 2.125504 0.000000 0.007515
												CHANNELS 3 Xrotation Yrotation Zrotation
												End Site
												{
													OFFSET 2.125511 0.000015 0.006257
												}
											}
										}
									}
								}
							}
						}
					}
				}
			}
		}
	}
	JOINT RightUpLeg
	{
		OFFSET -8.207787 -6.751663 -1.599560
		CHANNELS 6 Xposition Yposition Zposition Xrotation Yrotation Zrotation
		JOINT RightLeg
		{
			OFFSET -0.000001 -44.370129 0.345939
			CHANNELS 3 Xrotation Yrotation Zrotation
			JOINT RightFoot
			{
				OFFSET 0.000001 -44.423679 -3.043537
				CHANNELS 3 Xrotation Yrotation Zrotation
				JOINT RightToeBase
				{
					OFFSET -0.000003 -8.728673 10.710563
					CHANNELS 6 Xposition Yposition Zposition Xrotation Yrotation Zrotation
					JOINT RightToe_End
					{
						OFFSET -0.000002 -0.000676 9.278122
						CHANNELS 6 Xposition Yposition Zposition Xrotation Yrotation Zrotation
						End Site
						{
							OFFSET -0.000003 -0.000676 9.278122
						}
					}
				}
			}
		}
	}
	JOINT LeftUpLeg
	{
		OFFSET 8.207791 -6.751694 -1.599555
		CHANNELS 6 Xposition Yposition Zposition Xrotation Yrotation Zrotation
		JOINT LeftLeg
		{
			OFFSET -0.000002 -44.370033 0.346957
			CHANNELS 3 Xrotation Yrotation Zrotation
			JOINT LeftFoot
			{
				OFFSET 0.000000 -44.423672 -3.044393
				CHANNELS 3 Xrotation Yrotation Zrotation
				JOINT LeftToeBase
				{
					OFFSET -0.000003 -8.728668 10.710562
					CHANNELS 6 Xposition Yposition Zposition Xrotation Yrotation Zrotation
					JOINT LeftToe_End
					{
						OFFSET -0.000003 -0.000676 9.278135
						CHANNELS 6 Xposition Yposition Zposition Xrotation Yrotation Zrotation
						End Site
						{
							OFFSET -0.000003 -0.000677 9.278135
						}
					}
				}
			}
		}
	}
}
MOTION
Frames: 4
Frame Time: 0.033333
0.612046 82.122650 0.161121 -29.626673 -22.164041 -25.721408 -0.000002 10.181580 0.131515 14.082783 10.112518 -3.060802 0.000003 9.893950 -1.470710 1.361565 2.848195 0.144721 1.380796 2.822183 0.114125 0.000003 16.740423 -2.049036 3.479111 -1.932763 0.218970 0.000004 9.617880 1.685004 8.764235 -20.296751 11.241930 0.000005 22.037354 7.501098 0.000001 -0.000003 -0.000000 -4.569968 11.014932 -2.160886 0.821058 3.691075 -4.575238 29.787186 -12.015498 12.825504 -27.841515 0.000031 -0.000002 -0.000011 44.662296 0.000005 -28.328844 0.000011 0.000031 26.446397 4.983948 32.606603 -2.464812 -1.573990 2.681859 4.263962 2.091838 -4.050349 -3.215198 -1.872783 1.924268 7.410086 -14.409648 -4.364542 -2.654840 -1.527983 1.512606 -8.441248 2.932009 -14.627157 0.000002 0.000002 -0.000001 -9.108279 -0.517862 2.259835 0.387527 3.112724 0.644210 0.657076 -2.368378 30.906183 0.662320 -2.406325 30.906749 -0.000002 0.000007 -0.000001 -9.532508 -0.000016 -0.000011 -0.696081 0.191668 13.910291 0.457519 -1.957850 26.078576 0.060700 -0.790316 9.288716 -0.000001 0.000000 -0.000002 -9.103598 -0.043083 -1.865129 0.801547 -5.183148 19.768787 0.394822 -1.896332 23.646912 0.272150 -1.562905 19.414102 0.000000 -0.000000 -0.000001 -8.076687 -0.486723 -3.806272 1.973972 -15.579284 22.190726 0.394132 -1.942901 25.711824 0.418899 -2.091164 25.713386 -0.000000 -0.000004 0.000000 4.570446 11.014753 -2.160856 -1.714896 9.899167 0.739500 25.814876 24.343745 -19.738724 -0.000084 -41.661753 -0.000040 28.328842 -0.000055 0.000025 13.204644 -15.596155 -11.762188 2.466144 -1.576203 2.681732 5.194935 -0.277621 4.609154 3.217787 -1.872041 1.916494 7.068180 12.670914 3.665937 2.656022 -1.528799 1.514498 -10.337204 -8.745688 12.710813 2.020889 -1.154065 1.115130 -0.000000 -0.000006 -0.000006 9.109313 -0.518047 2.259873 0.332485 -2.976147 -1.456084 0.834195 3.019843 -30.858528 0.830254 3.001286 -30.858149 0.000003 -0.000001 -0.000000 9.533416 0.000011 0.000044 -0.687620 0.195909 -14.655421 0.595043 2.578021 -26.036345 0.077266 0.950552 -9.294157 -0.000004 -0.000001 -0.000000 9.104532 -0.043057 -1.865076 0.933690 5.742613 -20.413924 0.491421 2.349866 -23.606358 0.332472 1.946640 -19.370497 2.644316 0.000016 0.000049 0.000004 0.000000 0.000001 8.077791 -0.486886 -3.806259 2.338758 16.421643 -22.691125 0.670213 2.497033 -25.672217 0.666942 2.514209 -25.672429 -0.000000 -0.000003 -0.000000 -8.207784 -6.751663 -1.599570 -2.380290 -19.242267 -13.238756 80.079453 6.674484 1.486031 14.368551 3.530737 16.628611 -0.000002 -8.728668 10.710564 -61.595431 0.028116 -1.559341 -0.000000 -0.000676 9.278122 -0.000000 0.000002 -0.000000 8.207794 -6.751697 -1.599564 -25.560055 4.256547 -7.994542 34.109606 -2.251813 -1.011814 30.344225 4.939312 19.812074 -0.000003 -8.728673 10.710559 -18.999576 0.000001 -0.000001 -0.000006 -0.000678 9.278136 0.000003 -0.000001 -0.000000 
1.333036 86.084984 0.173013 -29.518517 -33.541147 -28.837568 -0.000004 10.181592 0.131524 13.003791 8.905661 -1.829143 -0.000003 9.893961 -1.470711 1.219926 2.416160 0.439668 1.239830 2.383138 0.414248 -0.000002 16.740425 -2.049033 3.366396 -0.951763 0.346349 0.000001 9.617884 1.685003 5.869531 -9.619083 9.033575 0.000002 22.037354 7.501098 -0.000001 -0.000007 0.000000 -4.569976 11.014911 -2.160883 0.976127 5.567918 -3.829708 28.253593 -7.013865 20.622865 -27.841520 0.000020 -0.000003 0.000002 59.881143 -0.000008 -28.328854 0.000029 0.000033 25.599443 6.859704 21.497510 -2.464811 -1.573962 2.681848 -8.283638 -9.468354 -2.368626 -3.215208 -1.872786 1.924281 5.550490 -15.612709 -6.768586 -2.654846 -1.527994 1.512608 -9.109794 2.635229 -15.102207 -0.000001 0.000000 0.000000 -9.108280 -0.517859 2.259835 0.809752 2.597486 3.090017 0.542455 -2.164618 28.032396 0.522959 -2.156589 27.390694 0.000000 0.000003 0.000000 -9.532508 0.000003 -0.000026 -0.570740 -0.383727 14.164132 0.439124 -1.918981 25.550143 0.087849 -0.941175 11.170499 0.000001 -0.000004 0.000003 -9.103591 -0.043053 -1.865134 0.659054 -4.780052 19.960043 0.396229 -1.899528 23.689738 0.279624 -1.583651 19.685032 -0.000001 0.000001 0.000001 -8.076666 -0.486724 -3.806278 1.210247 -13.467688 23.197891 0.376572 -1.902597 25.171868 0.430251 -2.115882 26.047556 0.000003 -0.000002 0.000001 4.570441 11.014742 -2.160855 -1.234625 7.217367 -0.006731 31.334910 17.469312 -24.183002 -0.000094 -51.029450 -0.000036 28.328825 -0.000049 0.000019 14.526986 -17.554471 -12.310415 2.466132 -1.576205 2.681747 -6.406727 14.031401 -0.581744 3.217797 -1.872042 1.916481 5.734988 11.600883 8.639333 2.656032 -1.528813 1.514509 -11.462657 -6.569799 13.966157 2.020898 -1.154061 1.115139 -0.000001 0.000000 -0.000010 9.109309 -0.518049 2.259871 1.200559 -3.270644 -3.688217 0.711143 2.804522 -28.433021 0.695380 2.763320 -28.182715 0.000000 -0.000000 0.000000 9.533419 0.000007 0.000042 -0.596480 0.668842 -15.152737 0.624310 2.637076 -26.680684 0.127891 1.219937 -11.970082 -0.000001 -0.000000 0.000001 9.104541 -0.043074 -1.865065 0.878062 5.516987 -21.810548 0.546615 2.472203 -24.918135 0.373902 2.060563 -20.554986 2.644317 0.000013 0.000063 -0.000000 -0.000000 -0.000003 8.077788 -0.486911 -3.806254 1.832871 15.003899 -25.371528 0.647186 2.452826 -25.185219 0.798671 2.751831 -28.327614 0.000002 -0.000000 0.000000 -8.207787 -6.751661 -1.599557 -5.959789 -18.034138 -14.296778 74.009676 6.136008 1.765010 10.674301 4.620478 9.620487 -0.000003 -8.728667 10.710562 -53.119143 0.000022 -0.000005 -0.000004 -0.000676 9.278120 -0.000000 0.000003 -0.000000 8.207794 -6.751695 -1.599554 -24.488779 2.788667 -3.178046 26.598343 2.569699 -0.921237 26.158967 3.254020 15.189180 -0.000004 -8.728669 10.710561 -11.648910 -0.000007 -0.000007 -0.000007 -0.000676 9.278139 0.000003 -0.000005 -0.000001 
3.252196 90.715759 -0.793357 -26.229006 -46.278910 -28.441138 -0.000004 10.181577 0.131525 10.745780 7.324232 -1.207416 -0.000001 9.893962 -1.470710 0.946805 1.935652 0.693890 0.965551 1.901330 0.676091 -0.000000 16.740410 -2.049035 2.967014 0.020653 0.514319 0.000002 9.617868 1.685008 2.318267 0.936070 7.885468 0.000002 22.037369 7.501098 0.000000 -0.000000 -0.000000 -4.569970 11.014918 -2.160887 1.174759 8.139534 -2.939377 28.630669 -0.471217 28.200630 -27.841526 0.000028 -0.000016 -0.000005 74.604647 0.000002 -28.328848 0.000002 0.000030 28.969824 9.357452 12.506008 -2.464810 -1.573974 2.681852 -26.359899 -22.444488 -0.239468 -3.215216 -1.872772 1.924272 1.615797 -17.626352 -12.757413 -2.654835 -1.528002 1.512620 -10.668529 1.654868 -16.394158 0.000001 0.000000 0.000001 -9.108279 -0.517876 2.259841 1.830358 2.819383 8.482806 0.500814 -2.084119 26.918436 0.426862 -1.960105 24.702580 0.000001 -0.000001 0.000003 -9.532510 -0.000000 -0.000021 -0.505419 -1.189786 17.222513 0.570928 -2.179120 29.134363 0.188565 -1.353098 16.379413 0.000004 -0.000000 -0.000001 -9.103583 -0.043071 -1.865131 0.522540 -4.338663 23.786824 0.563707 -2.240883 28.363658 0.394473 -1.870201 23.478268 -0.000002 -0.000003 0.000004 -8.076674 -0.486692 -3.806274 0.598737 -11.086182 29.244251 0.494966 -2.156660 28.614895 0.644799 -2.524851 31.725047 -0.000002 0.000001 0.000001 4.570447 11.014724 -2.160858 -0.685216 4.230108 -1.217681 37.050590 10.149449 -27.395771 -0.000191 -65.392825 -0.000132 28.328833 -0.000046 0.000018 9.860955 -9.923067 -8.752169 2.466125 -1.576205 2.681735 -23.241860 27.525850 -2.639091 3.217813 -1.872041 1.916493 4.244397 10.494673 13.974679 2.656009 -1.528787 1.514503 -12.707972 -4.377381 15.444028 2.020892 -1.154065 1.115135 -0.000005 0.000001 0.000002 9.109290 -0.518037 2.259874 2.034286 -3.592260 -6.231596 0.578600 2.545543 -25.588238 0.550307 2.473856 -25.016606 0.000000 0.000001 0.000002 9.533397 0.000023 0.000046 -0.475934 1.221427 -15.671861 0.650405 2.688361 -27.243477 0.198118 1.513333 -14.915953 -0.000000 0.000000 0.000001 9.104512 -0.043046 -1.865074 0.785626 5.241722 -23.242220 0.604796 2.593604 -26.234036 0.419105 2.177189 -21.777097 2.644321 0.000036 0.000056 0.000000 -0.000000 -0.000001 8.077785 -0.486877 -3.806259 1.495052 13.235430 -28.240626 0.619298 2.397970 -24.583905 0.945579 2.989689 -31.060838 -0.000001 -0.000000 0.000002 -8.207788 -6.751678 -1.599556 -10.842399 -17.272606 -14.054016 64.353482 4.613873 1.971620 -1.370768 7.832357 4.929617 -0.000005 -8.728668 10.710564 -33.631018 0.000007 -0.000005 -0.000005 -0.000676 9.278122 -0.000000 0.000000 -0.000000 8.207792 -6.751707 -1.599555 -25.004669 2.002860 -0.869121 18.725085 4.895158 -0.463170 24.466390 1.481995 8.456402 -0.000006 -8.728669 10.710563 -6.766558 0.000002 -0.000009 0.000003 -0.000678 9.278137 0.000003 0.000003 0.000000 
5.394422 94.496658 -2.232774 -19.879163 -56.754535 -26.283538 -0.000005 10.181579 0.131523 9.096552 6.139402 -0.147148 -0.000002 9.893970 -1.470711 1.158022 1.588488 0.728272 1.176658 1.549517 0.721234 0.000003 16.740402 -2.049035 2.307576 0.852369 0.805193 0.000004 9.617879 1.685010 -1.650259 10.528098 7.531843 0.000001 22.037354 7.501099 0.000000 -0.000000 -0.000000 -4.569967 11.014924 -2.160885 1.339564 9.736154 -2.015149 29.906168 5.821928 37.888623 -27.841511 0.000011 0.000008 -0.000360 87.020531 0.000392 -28.328835 -0.000006 0.000030 27.723489 7.551209 4.060230 -2.464821 -1.573991 2.681831 -48.848779 -32.707956 1.111528 -3.215196 -1.872750 1.924284 -3.124563 -19.021776 -20.751377 -2.654851 -1.527982 1.512614 -12.677125 0.335262 -18.178922 -0.000000 -0.000001 -0.000001 -9.108272 -0.517855 2.259836 2.779602 3.729667 15.167103 0.498276 -2.079145 26.849873 0.359967 -1.807577 22.656062 -0.000000 -0.000000 -0.000001 -9.532539 -0.000001 -0.000024 -0.391767 -2.063320 21.680180 0.814042 -2.575466 34.852690 0.376008 -1.874947 23.194503 0.000000 0.000001 -0.000004 -9.103608 -0.043066 -1.865136 0.298875 -3.951547 29.474814 0.867365 -2.726795 35.412694 0.597418 -2.276592 29.062793 -0.000000 -0.000002 -0.000000 -8.076685 -0.486708 -3.806280 0.184863 -8.741466 37.831533 0.712875 -2.542772 34.063724 1.036896 -3.089699 40.186531 -0.000001 -0.000002 0.000003 4.570449 11.014724 -2.160856 -0.172746 0.910687 -2.544682 42.194450 1.860587 -29.436128 -0.000560 -80.615200 -0.000525 28.328836 -0.000065 0.000013 4.277781 2.529862 -4.363691 2.466149 -1.576206 2.681717 -44.689911 36.712929 -1.818245 3.217813 -1.872057 1.916491 2.810741 9.271672 19.329864 2.656027 -1.528803 1.514498 -13.989336 -2.259701 17.069000 2.020901 -1.154053 1.115132 -0.000004 -0.000007 -0.000008 9.109312 -0.518057 2.259870 2.760721 -3.988590 -8.807705 0.456720 2.274665 -22.684616 0.418816 2.170149 -21.781714 -0.000004 0.000001 0.000001 9.533426 0.000015 0.000040 -0.342725 1.781911 -16.197372 0.676309 2.738054 -27.791089 0.284519 1.806486 -17.901099 -0.000003 0.000001 0.000001 9.104548 -0.043060 -1.865077 0.673733 4.967003 -24.678360 0.665747 2.713605 -27.550092 0.467005 2.293330 -23.004704 2.644307 0.000000 0.000055 0.000000 -0.000000 0.000004 8.077778 -0.486887 -3.806258 1.441986 11.367814 -31.144679 0.591239 2.341303 -23.966336 1.104378 3.221202 -33.806240 -0.000001 -0.000001 -0.000000 -8.207786 -6.751685 -1.599562 -15.347406 -18.157786 -10.854682 53.913856 5.944448 1.668231 -6.665871 10.255846 6.407573 -0.000003 -8.728670 10.710563 -17.219820 0.050258 -2.230274 -0.000003 -0.000676 9.278120 -0.000000 0.000001 -0.000000 8.207792 -6.751710 -1.599559 -28.729504 1.536535 1.906973 17.625050 4.074814 -0.032825 19.955755 -0.333847 3.116910 -0.000004 -8.728666 10.710562 -3.199020 -0.000012 0.000007 -0.000002 -0.000677 9.278137 0.000003 0.000003 0.000001 
